<svg xmlns="http://www.w3.org/2000/svg" viewBox="0 0 142.95 142.98"><defs><style>.cls-1{fill:#2d55ff;fill-rule:evenodd;}</style></defs><g id="Layer_2" data-name="Layer 2"><g id="Layer_1-2" data-name="Layer 1"><path class="cls-1" d="M107.25,65.56v-6a5.92,5.92,0,0,0-5.9-5.91H68.46a5.91,5.91,0,0,0-5.9,5.91v6a5.91,5.91,0,0,0,5.9,5.91h32.89A5.92,5.92,0,0,0,107.25,65.56Zm-53.63-3a8.94,8.94,0,1,0-8.93,8.93A8.93,8.93,0,0,0,53.62,62.55ZM26.82,111V98.29h89.34V111a5.16,5.16,0,0,0,5.14,5.15h7.59A5.16,5.16,0,0,0,134,111V49.82a5.15,5.15,0,0,0-5.15-5.14H121.3a5.15,5.15,0,0,0-5.14,5.14V80.43H26.82V49.83a5.15,5.15,0,0,0-5.15-5.14H14.08a5.15,5.15,0,0,0-5.14,5.14V111a5.15,5.15,0,0,0,5.14,5.15h7.59A5.16,5.16,0,0,0,26.82,111ZM0,121.65V21.33A21.33,21.33,0,0,1,21.33,0h100.3A21.33,21.33,0,0,1,143,21.33V121.65A21.33,21.33,0,0,1,121.63,143H21.33A21.34,21.34,0,0,1,0,121.65Z"/></g></g></svg>