<svg xmlns="http://www.w3.org/2000/svg" viewBox="0 0 1045.44 214.84"><defs><style>.cls-1,.cls-2{fill:#2d55ff;}.cls-2{fill-rule:evenodd;}</style></defs><g id="Layer_2" data-name="Layer 2"><g id="Layer_1-2" data-name="Layer 1"><path class="cls-1" d="M638.49,153h8.79l-.08-91.95h-8.8ZM588.86,94.94c12.77,0,22.07,8.9,23.2,21.66l-46.23,0C566.94,103.88,576.22,95,588.86,94.94Zm31.63,25.49c0-19.58-13.29-33.07-31.63-33.05S557,101.16,557,120.49s13.91,33.2,34.23,33.18c10.29,0,19.33-3.74,25.15-10.68l-5-5.7c-5,5.71-12,8.57-20,8.57-14.25,0-24.66-9-25.67-22.65l54.53,0C620.36,122.17,620.49,121.18,620.49,120.43ZM546.9,142.81a14.56,14.56,0,0,1-9.66,3.35c-7.31,0-11.28-4.2-11.29-11.88l0-38.91,19.83,0V87.91l-19.83,0V73.68h-8.8l0,14.25H505.46v7.44h11.64l0,39.4c0,12,6.84,19,19.1,18.94,5.08,0,10.29-1.49,13.75-4.59ZM464.62,146c-13.88,0-24.3-10.14-24.31-25.38s10.38-25.42,24.26-25.43,24.18,10.14,24.19,25.38S478.5,146,464.62,146Zm0,7.8c19.08,0,33.07-13.91,33.05-33.24s-14-33.07-33.12-33-33.19,13.78-33.17,33.12S445.55,153.81,464.63,153.79Zm-62.17-87.3,0,38.66-54.28.06,0-38.67H339l.09,86.74h9.17l0-40,54.28-.05,0,40h9l-.08-86.74Z"/><path class="cls-1" d="M1036.64,141.3h8.8l-.09-92h-8.8ZM983.22,135c-10.41,0-16.48-4.7-16.49-12.26,0-6.69,4.08-11.65,16.72-11.66l20.44,0v10.66C1000.44,130.31,993.14,135,983.22,135Zm3-59.36c-10.28,0-19.94,3.24-26.51,8.82l4,6.56c5.33-4.71,13.26-7.69,21.68-7.7,12.15,0,18.47,6,18.48,17.21v4l-20.7,0c-18.71,0-25.14,8.45-25.13,18.49,0,11.28,9.06,19,23.81,18.94,10.78,0,18.46-4.11,22.41-10.81v10.17h8.43l0-40.4C1012.67,84.08,1003.12,75.66,986.26,75.68Zm-73.42,58.56c-13.88,0-24.3-10.14-24.32-25.38s10.39-25.42,24.27-25.43,24.29,10.26,24.31,25.38S926.59,134.22,912.84,134.24Zm.56-58.49c-10.78,0-19.82,4.72-25.14,13.4l0-12.88h-8.42l.08,89.23h8.8l0-36.31c5.46,8.42,14.38,12.87,24.79,12.86,18.59,0,32.46-13.41,32.44-33.24S932,75.73,913.4,75.75Zm-83.14,7.64c12.76,0,22.06,8.9,23.19,21.66l-46.22,0C808.33,92.33,817.62,83.4,830.26,83.39Zm31.62,25.49c0-19.58-13.29-33.07-31.63-33s-31.83,13.78-31.82,33.11,13.91,33.2,34.24,33.18c10.28,0,19.33-3.74,25.14-10.68l-5-5.7c-5,5.71-12,8.57-19.94,8.57-14.25,0-24.67-9-25.68-22.65l54.53,0C861.76,110.62,861.88,109.63,861.88,108.88ZM769.51,54.82l.07,70.38-56-70.33h-7.56l.09,86.74h9.17l-.07-70.38,55.83,70.33h7.56l-.09-86.74Z"/><path class="cls-2" d="M127,100.4V93.25a7,7,0,0,0-7-7h-39a7,7,0,0,0-7,7v7.15a7,7,0,0,0,7,7h39A7,7,0,0,0,127,100.4ZM63.5,96.83a10.58,10.58,0,1,0-10.58,10.58A10.58,10.58,0,0,0,63.5,96.83ZM31.76,154.22V139.16H137.55v15.05a6.1,6.1,0,0,0,6.1,6.09h9a6.1,6.1,0,0,0,6.1-6.09V81.77a6.11,6.11,0,0,0-6.1-6.1h-9a6.11,6.11,0,0,0-6.1,6.1V118H31.76V81.78a6.1,6.1,0,0,0-6.1-6.09h-9a6.1,6.1,0,0,0-6.1,6.09v72.44a6.11,6.11,0,0,0,6.1,6.1h9A6.11,6.11,0,0,0,31.76,154.22ZM0,166.82V48A25.26,25.26,0,0,1,25.25,22.77H144A25.26,25.26,0,0,1,169.28,48v118.8A25.27,25.27,0,0,1,144,192.08H25.25A25.27,25.27,0,0,1,0,166.82Z"/><rect class="cls-1" x="266.88" width="3.11" height="214.84"/></g></g></svg>